<svg id="Calque_1" data-name="Calque 1" xmlns="http://www.w3.org/2000/svg" xmlns:xlink="http://www.w3.org/1999/xlink" viewBox="0 0 26 26"><defs><style>.cls-1{fill:url(#Dégradé_sans_nom_274);}.cls-2{fill:#fff;}</style><linearGradient id="Dégradé_sans_nom_274" x1="0.42" y1="13" x2="25.58" y2="13" gradientUnits="userSpaceOnUse"><stop offset="0" stop-color="#6f0389"/><stop offset="0.18" stop-color="#592991"/><stop offset="0.59" stop-color="#2288a7"/><stop offset="0.83" stop-color="#00c3b4"/></linearGradient></defs><circle class="cls-1" cx="13" cy="13" r="12.58"/><path class="cls-2" d="M8.06,8.45,5.79,20.84h4.29A2.48,2.48,0,0,0,12.61,19l.48-2.54h3l.35-2h-3l.37-2.07H17.7l.38-2H12.23l-1.62,8.46H8.2L9.89,9.37a1.74,1.74,0,0,1,1.76-1.28l7.11,0-.42,2h.21a2.12,2.12,0,0,0,2.17-1.72l.48-2.31H11.27A3.26,3.26,0,0,0,8.06,8.45Z"/></svg>