<svg id="Calque_1" data-name="Calque 1" xmlns="http://www.w3.org/2000/svg" xmlns:xlink="http://www.w3.org/1999/xlink" viewBox="0 0 695.73 232.93"><defs><style>.cls-1{fill:#6f0389;}.cls-2{fill:url(#Dégradé_sans_nom_2);}.cls-3{fill:#fff;}</style><linearGradient id="Dégradé_sans_nom_2" x1="17.69" y1="118.04" x2="217.3" y2="118.04" gradientUnits="userSpaceOnUse"><stop offset="0" stop-color="#6f0389"/><stop offset="0.18" stop-color="#592991"/><stop offset="0.59" stop-color="#2288a7"/><stop offset="0.83" stop-color="#00c3b4"/></linearGradient></defs><path class="cls-1" d="M271.81,63h78.05l-3,15.51H285.67l-5.77,29.7h51.64l-3,15.51H276.92l-9.24,47.2H250.85Z"/><path class="cls-1" d="M412.73,156.07c-7.26,11.39-18.81,17-31.68,17-20,0-37.79-13.7-37.79-37.79,0-25.9,20.63-48,48.68-48,22.6,0,40.42,14.35,40.42,38a52.46,52.46,0,0,1-1,9.9l-7.1,35.81H409.76Zm4-29.2c0-14.85-9.9-25.08-25.58-25.08-19.14,0-31.51,15.18-31.51,31.84,0,15,10.06,24.92,25.57,24.92C404,158.55,416.69,143.86,416.69,126.87Z"/><path class="cls-1" d="M574.6,116.47a56.4,56.4,0,0,1-1,10.23L565,170.93H549l8.75-45.22a36.25,36.25,0,0,0,.66-6.6c0-11.55-7.43-17.32-17.33-17.32-10.23,0-18.64,6.27-21.28,20.13l-9.41,49H494.57l8.75-45.38a30.09,30.09,0,0,0,.66-6.11c0-11.88-7.92-17.65-17.82-17.65-10.07,0-18.15,6.1-20.79,20l-9.57,49.18H440l9.74-50.66c4.29-22.61,19-33,36-33,13.2,0,23.76,5.77,28.38,16.33,6.77-10.89,17.33-16.5,30.2-16.5C561.57,87.1,574.6,97.17,574.6,116.47Z"/><path class="cls-1" d="M673.77,124.89a45.49,45.49,0,0,1-1,9.4l-.33,1.65H601c1,14.36,11.06,22.61,26.73,22.61,9.9,0,17.16-3.3,22.77-10.4H668c-7.76,15.51-23.44,24.92-42.41,24.92-24.59,0-40.76-16-40.76-38.78,0-25.9,20.79-47,48.18-47C655.62,87.27,673.77,101.79,673.77,124.89Zm-70.79-3H657.6c-1.81-12.87-12.21-20.13-25.58-20.13C617.5,101.79,607.11,110.37,603,121.92Z"/><circle class="cls-2" cx="117.5" cy="118.04" r="99.8"/><path class="cls-3" d="M78.3,82l-18,98.28H94.35c9.73,0,18.14-5.79,20.05-14.6l3.84-20.17h24.12l2.74-16H121.17l2.9-16.46h30.71l3-16h-46.4L98.55,164.15H79.44L92.82,89.27c1.11-6,7.44-10.2,13.93-10.2l56.4.27L159.9,95h1.64c8.8,0,15.74-5.56,17.22-13.67L182.52,63H103.78C92,63.2,80.79,70.61,78.3,82Z"/></svg>