<svg id="Calque_1" data-name="Calque 1" xmlns="http://www.w3.org/2000/svg" xmlns:xlink="http://www.w3.org/1999/xlink" viewBox="0 0 512 512"><defs><style>.cls-1{fill:#6f0389;}.cls-2{fill:url(#Dégradé_sans_nom_2);}.cls-3{fill:#fff;}</style><linearGradient id="Dégradé_sans_nom_2" x1="143.6" y1="173.7" x2="365.73" y2="173.7" gradientUnits="userSpaceOnUse"><stop offset="0" stop-color="#6f0389"/><stop offset="0.18" stop-color="#592991"/><stop offset="0.59" stop-color="#2288a7"/><stop offset="0.83" stop-color="#00c3b4"/></linearGradient></defs><path class="cls-1" d="M63.75,307H141.8l-3,15.51H77.61l-5.78,29.7h51.65l-3,15.51H68.86l-9.24,47.19H42.79Z"/><path class="cls-1" d="M204.67,400c-7.27,11.39-18.82,17-31.69,17-20,0-37.78-13.7-37.78-37.79,0-25.9,20.62-48,48.67-48,22.61,0,40.43,14.35,40.43,37.95a51.68,51.68,0,0,1-1,9.9l-7.09,35.8H201.7Zm4-29.2c0-14.85-9.91-25.08-25.58-25.08-19.14,0-31.52,15.18-31.52,31.84,0,15,10.07,24.92,25.58,24.92C195.92,402.5,208.63,387.81,208.63,370.82Z"/><path class="cls-1" d="M366.54,360.42a56.4,56.4,0,0,1-1,10.23L357,414.87H341l8.75-45.21a37.17,37.17,0,0,0,.66-6.6c0-11.55-7.43-17.32-17.33-17.32-10.23,0-18.65,6.27-21.29,20.13l-9.4,49H286.51l8.74-45.37a29.4,29.4,0,0,0,.66-6.11c0-11.88-7.92-17.65-17.82-17.65-10.06,0-18.15,6.1-20.79,20l-9.57,49.17H231.89l9.74-50.65c4.29-22.61,19-33,36-33,13.2,0,23.76,5.77,28.38,16.33,6.77-10.89,17.33-16.5,30.2-16.5C353.5,331.05,366.54,341.12,366.54,360.42Z"/><path class="cls-1" d="M465.71,368.84a45.49,45.49,0,0,1-1,9.4l-.33,1.65H392.94c1,14.36,11.05,22.61,26.73,22.61,9.9,0,17.16-3.3,22.77-10.4h17.49C452.18,407.61,436.5,417,417.53,417c-24.59,0-40.76-16-40.76-38.78,0-25.9,20.79-47,48.18-47C447.56,331.22,465.71,345.74,465.71,368.84Zm-70.79-3h54.62C447.72,353,437.33,345.74,424,345.74,409.44,345.74,399,354.32,394.92,365.87Z"/><circle class="cls-2" cx="254.66" cy="173.7" r="111.07"/><path class="cls-3" d="M211,133.56,191,242.93H228.9c10.83,0,20.19-6.45,22.32-16.25l4.27-22.44h26.84l3.06-17.8H258.75L262,168.12h34.18l3.33-17.79H247.85L233.58,225H212.31l14.89-83.34c1.24-6.7,8.29-11.35,15.51-11.35l62.77.31L301.85,148h1.82c9.81,0,17.52-6.19,19.17-15.21L327,112.41H239.39C226.25,112.66,213.82,120.92,211,133.56Z"/></svg>